<?xml version="1.0" standalone="no"?>
<svg xmlns:xlink="http://www.w3.org/1999/xlink" id="wave" style="transform:rotate(0deg); transition: 0.3s" viewBox="0 0 1440 100" version="1.1" xmlns="http://www.w3.org/2000/svg"><defs><linearGradient id="sw-gradient-0" x1="0" x2="0" y1="1" y2="0"><stop stop-color="rgba(62, 231.435, 243, 1)" offset="0%"/><stop stop-color="rgba(11, 32.663, 255, 1)" offset="100%"/></linearGradient></defs><path style="transform:translate(0, 0px); opacity:1" fill="url(#sw-gradient-0)" d="M0,60L21.8,53.3C43.6,47,87,33,131,36.7C174.5,40,218,60,262,71.7C305.5,83,349,87,393,88.3C436.4,90,480,90,524,78.3C567.3,67,611,43,655,33.3C698.2,23,742,27,785,35C829.1,43,873,57,916,63.3C960,70,1004,70,1047,58.3C1090.9,47,1135,23,1178,15C1221.8,7,1265,13,1309,16.7C1352.7,20,1396,20,1440,25C1483.6,30,1527,40,1571,50C1614.5,60,1658,70,1702,68.3C1745.5,67,1789,53,1833,53.3C1876.4,53,1920,67,1964,71.7C2007.3,77,2051,73,2095,66.7C2138.2,60,2182,50,2225,50C2269.1,50,2313,60,2356,61.7C2400,63,2444,57,2487,56.7C2530.9,57,2575,63,2618,61.7C2661.8,60,2705,50,2749,50C2792.7,50,2836,60,2880,53.3C2923.6,47,2967,23,3011,16.7C3054.5,10,3098,20,3120,25L3141.8,30L3141.8,100L3120,100C3098.2,100,3055,100,3011,100C2967.3,100,2924,100,2880,100C2836.4,100,2793,100,2749,100C2705.5,100,2662,100,2618,100C2574.5,100,2531,100,2487,100C2443.6,100,2400,100,2356,100C2312.7,100,2269,100,2225,100C2181.8,100,2138,100,2095,100C2050.9,100,2007,100,1964,100C1920,100,1876,100,1833,100C1789.1,100,1745,100,1702,100C1658.2,100,1615,100,1571,100C1527.3,100,1484,100,1440,100C1396.4,100,1353,100,1309,100C1265.5,100,1222,100,1178,100C1134.5,100,1091,100,1047,100C1003.6,100,960,100,916,100C872.7,100,829,100,785,100C741.8,100,698,100,655,100C610.9,100,567,100,524,100C480,100,436,100,393,100C349.1,100,305,100,262,100C218.2,100,175,100,131,100C87.3,100,44,100,22,100L0,100Z"/></svg>